# xmcd CD database file
#
# Track frame offsets:
#	150
#	17700
#	36913
#	61550
#	86200
#	105038
#	126063
#	146013
#	163638
#	181888
#	195750
#	210275
#	226875
#	245338
#	267825
#	282650
#
# Disc length: 3992 seconds
#
# Revision: 2
# Processed by: cddbd v1.4PL0 Copyright (c) Steve Scherf et al.
# Submitted via: CDex 1.40PlusFr
#
DISCID=cb0f9610
DTITLE=Synthesizer Collection - Synthesizer Collection (Vol 1)
DYEAR=1990
DGENRE=Instrumental
TTITLE0=Crockett's Theme
TTITLE1=Eve Of The War
TTITLE2=An Officer And A Gentleman
TTITLE3=Madame Curie
TTITLE4=Right Here Waiting
TTITLE5=The Ball
TTITLE6=I Just Called To Say I Love You
TTITLE7=On The Corner
TTITLE8=I'll Find My Way Home
TTITLE9=Out Of Africa
TTITLE10=Moments In Love
TTITLE11=Tubbs and Valerie
TTITLE12=Hymne
TTITLE13=Speaking Of Mr Doley
TTITLE14=Theme From Rainman
TTITLE15=Magnetic Fields
EXTD=YEAR: 1990 ID3G: 33
EXTT0=
EXTT1=
EXTT2=
EXTT3=
EXTT4=
EXTT5=
EXTT6=
EXTT7=
EXTT8=
EXTT9=
EXTT10=
EXTT11=
EXTT12=
EXTT13=
EXTT14=
EXTT15=
PLAYORDER=
